<?xml version="1.0" encoding="UTF-8" standalone="no"?>
<!DOCTYPE svg PUBLIC "-//W3C//DTD SVG 1.1//EN"
 "http://www.w3.org/Graphics/SVG/1.1/DTD/svg11.dtd">
<!-- Generated by graphviz version 2.43.0 (0)
 -->
<!-- Title: %3 Pages: 1 -->
<svg width="813pt" height="1026pt"
 viewBox="0.00 0.00 813.34 1026.00" xmlns="http://www.w3.org/2000/svg" xmlns:xlink="http://www.w3.org/1999/xlink">
<g id="graph0" class="graph" transform="scale(0.65 0.65) rotate(0) translate(4 1564)">
<title>%3</title>
<polygon fill="white" stroke="transparent" points="-4,4 -4,-1564 1239,-1564 1239,4 -4,4"/>
<!-- 132199803636336 -->
<g id="node1" class="node">
<title>132199803636336</title>
<polygon fill="#caff70" stroke="black" points="507,-31 442,-31 442,0 507,0 507,-31"/>
<text text-anchor="middle" x="474.5" y="-7" font-family="monospace" font-size="10.00"> (1, 10)</text>
</g>
<!-- 132200300086416 -->
<g id="node2" class="node">
<title>132200300086416</title>
<polygon fill="lightgrey" stroke="black" points="590,-119 441,-119 441,-67 590,-67 590,-119"/>
<text text-anchor="middle" x="515.5" y="-107" font-family="monospace" font-size="10.00">LogSoftmaxBackward0</text>
<text text-anchor="middle" x="515.5" y="-96" font-family="monospace" font-size="10.00">&#45;&#45;&#45;&#45;&#45;&#45;&#45;&#45;&#45;&#45;&#45;&#45;&#45;&#45;&#45;&#45;&#45;&#45;&#45;&#45;&#45;&#45;</text>
<text text-anchor="middle" x="515.5" y="-85" font-family="monospace" font-size="10.00">dim &#160;&#160;: &#160;&#160;&#160;&#160;&#160;&#160;&#160;&#160;&#160;&#160;&#160;&#160;&#160;1</text>
<text text-anchor="middle" x="515.5" y="-74" font-family="monospace" font-size="10.00">result: [saved tensor]</text>
</g>
<!-- 132200300086416&#45;&gt;132199803636336 -->
<g id="edge47" class="edge">
<title>132200300086416&#45;&gt;132199803636336</title>
<path fill="none" stroke="black" d="M501.85,-66.86C497.18,-58.26 491.97,-48.67 487.36,-40.19"/>
<polygon fill="black" stroke="black" points="490.32,-38.31 482.48,-31.19 484.17,-41.65 490.32,-38.31"/>
</g>
<!-- 132199803640560 -->
<g id="node3" class="node">
<title>132199803640560</title>
<polygon fill="orange" stroke="black" points="590,-30.5 525,-30.5 525,-0.5 590,-0.5 590,-30.5"/>
<text text-anchor="middle" x="557.5" y="-18.5" font-family="monospace" font-size="10.00">result</text>
<text text-anchor="middle" x="557.5" y="-7.5" font-family="monospace" font-size="10.00"> (1, 10)</text>
</g>
<!-- 132200300086416&#45;&gt;132199803640560 -->
<g id="edge1" class="edge">
<title>132200300086416&#45;&gt;132199803640560</title>
<path fill="none" stroke="black" d="M529.49,-66.86C536.17,-54.85 543.92,-40.91 549.57,-30.75"/>
</g>
<!-- 132200300095200 -->
<g id="node4" class="node">
<title>132200300095200</title>
<polygon fill="lightgrey" stroke="black" points="748,-273 539,-273 539,-155 748,-155 748,-273"/>
<text text-anchor="middle" x="643.5" y="-261" font-family="monospace" font-size="10.00">AddmmBackward0</text>
<text text-anchor="middle" x="643.5" y="-250" font-family="monospace" font-size="10.00">&#45;&#45;&#45;&#45;&#45;&#45;&#45;&#45;&#45;&#45;&#45;&#45;&#45;&#45;&#45;&#45;&#45;&#45;&#45;&#45;&#45;&#45;&#45;&#45;&#45;&#45;&#45;&#45;&#45;&#45;&#45;&#45;</text>
<text text-anchor="middle" x="643.5" y="-239" font-family="monospace" font-size="10.00">alpha &#160;&#160;&#160;&#160;&#160;&#160;&#160;&#160;&#160;&#160;: &#160;&#160;&#160;&#160;&#160;&#160;&#160;&#160;&#160;&#160;&#160;&#160;&#160;1</text>
<text text-anchor="middle" x="643.5" y="-228" font-family="monospace" font-size="10.00">beta &#160;&#160;&#160;&#160;&#160;&#160;&#160;&#160;&#160;&#160;&#160;: &#160;&#160;&#160;&#160;&#160;&#160;&#160;&#160;&#160;&#160;&#160;&#160;&#160;1</text>
<text text-anchor="middle" x="643.5" y="-217" font-family="monospace" font-size="10.00">mat1 &#160;&#160;&#160;&#160;&#160;&#160;&#160;&#160;&#160;&#160;&#160;: [saved tensor]</text>
<text text-anchor="middle" x="643.5" y="-206" font-family="monospace" font-size="10.00">mat1_sym_sizes &#160;: &#160;&#160;&#160;&#160;&#160;&#160;(1, 128)</text>
<text text-anchor="middle" x="643.5" y="-195" font-family="monospace" font-size="10.00">mat1_sym_strides: &#160;&#160;&#160;&#160;&#160;&#160;(128, 1)</text>
<text text-anchor="middle" x="643.5" y="-184" font-family="monospace" font-size="10.00">mat2 &#160;&#160;&#160;&#160;&#160;&#160;&#160;&#160;&#160;&#160;&#160;: [saved tensor]</text>
<text text-anchor="middle" x="643.5" y="-173" font-family="monospace" font-size="10.00">mat2_sym_sizes &#160;: &#160;&#160;&#160;&#160;&#160;(128, 10)</text>
<text text-anchor="middle" x="643.5" y="-162" font-family="monospace" font-size="10.00">mat2_sym_strides: &#160;&#160;&#160;&#160;&#160;&#160;(1, 128)</text>
</g>
<!-- 132200300095200&#45;&gt;132200300086416 -->
<g id="edge2" class="edge">
<title>132200300095200&#45;&gt;132200300086416</title>
<path fill="none" stroke="black" d="M581,-154.89C570.28,-144.93 559.51,-134.92 549.89,-125.97"/>
<polygon fill="black" stroke="black" points="552.14,-123.29 542.44,-119.04 547.38,-128.41 552.14,-123.29"/>
</g>
<!-- 132199803640080 -->
<g id="node5" class="node">
<title>132199803640080</title>
<polygon fill="orange" stroke="black" points="679,-108 608,-108 608,-78 679,-78 679,-108"/>
<text text-anchor="middle" x="643.5" y="-96" font-family="monospace" font-size="10.00">mat1</text>
<text text-anchor="middle" x="643.5" y="-85" font-family="monospace" font-size="10.00"> (1, 128)</text>
</g>
<!-- 132200300095200&#45;&gt;132199803640080 -->
<g id="edge3" class="edge">
<title>132200300095200&#45;&gt;132199803640080</title>
<path fill="none" stroke="black" d="M643.5,-154.89C643.5,-137.43 643.5,-119.81 643.5,-108.04"/>
</g>
<!-- 132199803639312 -->
<g id="node6" class="node">
<title>132199803639312</title>
<polygon fill="orange" stroke="black" points="774,-108 697,-108 697,-78 774,-78 774,-108"/>
<text text-anchor="middle" x="735.5" y="-96" font-family="monospace" font-size="10.00">mat2</text>
<text text-anchor="middle" x="735.5" y="-85" font-family="monospace" font-size="10.00"> (128, 10)</text>
</g>
<!-- 132200300095200&#45;&gt;132199803639312 -->
<g id="edge4" class="edge">
<title>132200300095200&#45;&gt;132199803639312</title>
<path fill="none" stroke="black" d="M688.42,-154.89C701.92,-137.43 715.55,-119.81 724.64,-108.04"/>
</g>
<!-- 132200300086464 -->
<g id="node7" class="node">
<title>132200300086464</title>
<polygon fill="lightgrey" stroke="black" points="694,-344.5 593,-344.5 593,-325.5 694,-325.5 694,-344.5"/>
<text text-anchor="middle" x="643.5" y="-332.5" font-family="monospace" font-size="10.00">AccumulateGrad</text>
</g>
<!-- 132200300086464&#45;&gt;132200300095200 -->
<g id="edge5" class="edge">
<title>132200300086464&#45;&gt;132200300095200</title>
<path fill="none" stroke="black" d="M643.5,-325.44C643.5,-316.09 643.5,-300.16 643.5,-283.28"/>
<polygon fill="black" stroke="black" points="647,-283.26 643.5,-273.26 640,-283.26 647,-283.26"/>
</g>
<!-- 132199803642288 -->
<g id="node8" class="node">
<title>132199803642288</title>
<polygon fill="lightblue" stroke="black" points="684,-432.5 619,-432.5 619,-402.5 684,-402.5 684,-432.5"/>
<text text-anchor="middle" x="651.5" y="-420.5" font-family="monospace" font-size="10.00">fc2.bias</text>
<text text-anchor="middle" x="651.5" y="-409.5" font-family="monospace" font-size="10.00"> (10)</text>
</g>
<!-- 132199803642288&#45;&gt;132200300086464 -->
<g id="edge6" class="edge">
<title>132199803642288&#45;&gt;132200300086464</title>
<path fill="none" stroke="black" d="M650.11,-402.48C648.81,-389.4 646.86,-369.77 645.41,-355.23"/>
<polygon fill="black" stroke="black" points="648.85,-354.49 644.38,-344.88 641.89,-355.18 648.85,-354.49"/>
</g>
<!-- 132200300091792 -->
<g id="node9" class="node">
<title>132200300091792</title>
<polygon fill="lightgrey" stroke="black" points="944,-361 801,-361 801,-309 944,-309 944,-361"/>
<text text-anchor="middle" x="872.5" y="-349" font-family="monospace" font-size="10.00">MulBackward0</text>
<text text-anchor="middle" x="872.5" y="-338" font-family="monospace" font-size="10.00">&#45;&#45;&#45;&#45;&#45;&#45;&#45;&#45;&#45;&#45;&#45;&#45;&#45;&#45;&#45;&#45;&#45;&#45;&#45;&#45;&#45;</text>
<text text-anchor="middle" x="872.5" y="-327" font-family="monospace" font-size="10.00">other: [saved tensor]</text>
<text text-anchor="middle" x="872.5" y="-316" font-family="monospace" font-size="10.00">self : &#160;&#160;&#160;&#160;&#160;&#160;&#160;&#160;&#160;&#160;None</text>
</g>
<!-- 132200300091792&#45;&gt;132200300095200 -->
<g id="edge7" class="edge">
<title>132200300091792&#45;&gt;132200300095200</title>
<path fill="none" stroke="black" d="M824.21,-308.91C804.55,-298.69 780.92,-286.41 757.32,-274.15"/>
<polygon fill="black" stroke="black" points="758.77,-270.96 748.29,-269.45 755.55,-277.17 758.77,-270.96"/>
</g>
<!-- 132199803599664 -->
<g id="node10" class="node">
<title>132199803599664</title>
<polygon fill="orange" stroke="black" points="908,-229 837,-229 837,-199 908,-199 908,-229"/>
<text text-anchor="middle" x="872.5" y="-217" font-family="monospace" font-size="10.00">other</text>
<text text-anchor="middle" x="872.5" y="-206" font-family="monospace" font-size="10.00"> (1, 128)</text>
</g>
<!-- 132200300091792&#45;&gt;132199803599664 -->
<g id="edge8" class="edge">
<title>132200300091792&#45;&gt;132199803599664</title>
<path fill="none" stroke="black" d="M872.5,-308.76C872.5,-284.47 872.5,-248.63 872.5,-229.04"/>
</g>
<!-- 132200300096208 -->
<g id="node11" class="node">
<title>132200300096208</title>
<polygon fill="lightgrey" stroke="black" points="940,-438 791,-438 791,-397 940,-397 940,-438"/>
<text text-anchor="middle" x="865.5" y="-426" font-family="monospace" font-size="10.00">ReluBackward0</text>
<text text-anchor="middle" x="865.5" y="-415" font-family="monospace" font-size="10.00">&#45;&#45;&#45;&#45;&#45;&#45;&#45;&#45;&#45;&#45;&#45;&#45;&#45;&#45;&#45;&#45;&#45;&#45;&#45;&#45;&#45;&#45;</text>
<text text-anchor="middle" x="865.5" y="-404" font-family="monospace" font-size="10.00">result: [saved tensor]</text>
</g>
<!-- 132200300096208&#45;&gt;132200300091792 -->
<g id="edge9" class="edge">
<title>132200300096208&#45;&gt;132200300091792</title>
<path fill="none" stroke="black" d="M867.23,-396.6C867.9,-388.9 868.69,-379.86 869.44,-371.14"/>
<polygon fill="black" stroke="black" points="872.93,-371.42 870.31,-361.16 865.96,-370.81 872.93,-371.42"/>
</g>
<!-- 132199803598032 -->
<g id="node12" class="node">
<title>132199803598032</title>
<polygon fill="orange" stroke="black" points="783,-350 712,-350 712,-320 783,-320 783,-350"/>
<text text-anchor="middle" x="747.5" y="-338" font-family="monospace" font-size="10.00">result</text>
<text text-anchor="middle" x="747.5" y="-327" font-family="monospace" font-size="10.00"> (1, 128)</text>
</g>
<!-- 132200300096208&#45;&gt;132199803598032 -->
<g id="edge10" class="edge">
<title>132200300096208&#45;&gt;132199803598032</title>
<path fill="none" stroke="black" d="M836.63,-396.81C815.48,-382.38 787.27,-363.13 768.3,-350.19"/>
</g>
<!-- 132200300088048 -->
<g id="node13" class="node">
<title>132200300088048</title>
<polygon fill="lightgrey" stroke="black" points="842,-592 633,-592 633,-474 842,-474 842,-592"/>
<text text-anchor="middle" x="737.5" y="-580" font-family="monospace" font-size="10.00">AddmmBackward0</text>
<text text-anchor="middle" x="737.5" y="-569" font-family="monospace" font-size="10.00">&#45;&#45;&#45;&#45;&#45;&#45;&#45;&#45;&#45;&#45;&#45;&#45;&#45;&#45;&#45;&#45;&#45;&#45;&#45;&#45;&#45;&#45;&#45;&#45;&#45;&#45;&#45;&#45;&#45;&#45;&#45;&#45;</text>
<text text-anchor="middle" x="737.5" y="-558" font-family="monospace" font-size="10.00">alpha &#160;&#160;&#160;&#160;&#160;&#160;&#160;&#160;&#160;&#160;: &#160;&#160;&#160;&#160;&#160;&#160;&#160;&#160;&#160;&#160;&#160;&#160;&#160;1</text>
<text text-anchor="middle" x="737.5" y="-547" font-family="monospace" font-size="10.00">beta &#160;&#160;&#160;&#160;&#160;&#160;&#160;&#160;&#160;&#160;&#160;: &#160;&#160;&#160;&#160;&#160;&#160;&#160;&#160;&#160;&#160;&#160;&#160;&#160;1</text>
<text text-anchor="middle" x="737.5" y="-536" font-family="monospace" font-size="10.00">mat1 &#160;&#160;&#160;&#160;&#160;&#160;&#160;&#160;&#160;&#160;&#160;: [saved tensor]</text>
<text text-anchor="middle" x="737.5" y="-525" font-family="monospace" font-size="10.00">mat1_sym_sizes &#160;: &#160;&#160;&#160;&#160;&#160;&#160;(1, 256)</text>
<text text-anchor="middle" x="737.5" y="-514" font-family="monospace" font-size="10.00">mat1_sym_strides: &#160;&#160;&#160;&#160;&#160;&#160;(256, 1)</text>
<text text-anchor="middle" x="737.5" y="-503" font-family="monospace" font-size="10.00">mat2 &#160;&#160;&#160;&#160;&#160;&#160;&#160;&#160;&#160;&#160;&#160;: [saved tensor]</text>
<text text-anchor="middle" x="737.5" y="-492" font-family="monospace" font-size="10.00">mat2_sym_sizes &#160;: &#160;&#160;&#160;&#160;(256, 128)</text>
<text text-anchor="middle" x="737.5" y="-481" font-family="monospace" font-size="10.00">mat2_sym_strides: &#160;&#160;&#160;&#160;&#160;&#160;(1, 256)</text>
</g>
<!-- 132200300088048&#45;&gt;132200300096208 -->
<g id="edge11" class="edge">
<title>132200300088048&#45;&gt;132200300096208</title>
<path fill="none" stroke="black" d="M803,-473.92C814.45,-463.76 825.84,-453.66 835.7,-444.92"/>
<polygon fill="black" stroke="black" points="838.09,-447.48 843.25,-438.23 833.45,-442.25 838.09,-447.48"/>
</g>
<!-- 132199803641904 -->
<g id="node14" class="node">
<title>132199803641904</title>
<polygon fill="orange" stroke="black" points="773,-432.5 702,-432.5 702,-402.5 773,-402.5 773,-432.5"/>
<text text-anchor="middle" x="737.5" y="-420.5" font-family="monospace" font-size="10.00">mat1</text>
<text text-anchor="middle" x="737.5" y="-409.5" font-family="monospace" font-size="10.00"> (1, 256)</text>
</g>
<!-- 132200300088048&#45;&gt;132199803641904 -->
<g id="edge12" class="edge">
<title>132200300088048&#45;&gt;132199803641904</title>
<path fill="none" stroke="black" d="M737.5,-473.92C737.5,-458.65 737.5,-443.51 737.5,-432.92"/>
</g>
<!-- 132199803572624 -->
<g id="node15" class="node">
<title>132199803572624</title>
<polygon fill="orange" stroke="black" points="601,-432.5 518,-432.5 518,-402.5 601,-402.5 601,-432.5"/>
<text text-anchor="middle" x="559.5" y="-420.5" font-family="monospace" font-size="10.00">mat2</text>
<text text-anchor="middle" x="559.5" y="-409.5" font-family="monospace" font-size="10.00"> (256, 128)</text>
</g>
<!-- 132200300088048&#45;&gt;132199803572624 -->
<g id="edge13" class="edge">
<title>132200300088048&#45;&gt;132199803572624</title>
<path fill="none" stroke="black" d="M646.41,-473.92C622.29,-458.54 598.38,-443.29 581.76,-432.69"/>
</g>
<!-- 132200300094768 -->
<g id="node16" class="node">
<title>132200300094768</title>
<polygon fill="lightgrey" stroke="black" points="788,-658 687,-658 687,-639 788,-639 788,-658"/>
<text text-anchor="middle" x="737.5" y="-646" font-family="monospace" font-size="10.00">AccumulateGrad</text>
</g>
<!-- 132200300094768&#45;&gt;132200300088048 -->
<g id="edge14" class="edge">
<title>132200300094768&#45;&gt;132200300088048</title>
<path fill="none" stroke="black" d="M737.5,-638.97C737.5,-630.63 737.5,-617.09 737.5,-602.47"/>
<polygon fill="black" stroke="black" points="741,-602.22 737.5,-592.22 734,-602.22 741,-602.22"/>
</g>
<!-- 132199803636432 -->
<g id="node17" class="node">
<title>132199803636432</title>
<polygon fill="lightblue" stroke="black" points="862,-773.5 797,-773.5 797,-743.5 862,-743.5 862,-773.5"/>
<text text-anchor="middle" x="829.5" y="-761.5" font-family="monospace" font-size="10.00">fc1.bias</text>
<text text-anchor="middle" x="829.5" y="-750.5" font-family="monospace" font-size="10.00"> (128)</text>
</g>
<!-- 132199803636432&#45;&gt;132200300094768 -->
<g id="edge15" class="edge">
<title>132199803636432&#45;&gt;132200300094768</title>
<path fill="none" stroke="black" d="M819.01,-743.44C810.89,-732.73 799.27,-717.7 788.5,-705 777.04,-691.48 763.43,-676.72 753.15,-665.83"/>
<polygon fill="black" stroke="black" points="755.45,-663.18 746.03,-658.34 750.38,-668 755.45,-663.18"/>
</g>
<!-- 132200300094576 -->
<g id="node18" class="node">
<title>132200300094576</title>
<polygon fill="lightgrey" stroke="black" points="1235,-669 1044,-669 1044,-628 1235,-628 1235,-669"/>
<text text-anchor="middle" x="1139.5" y="-657" font-family="monospace" font-size="10.00">ViewBackward0</text>
<text text-anchor="middle" x="1139.5" y="-646" font-family="monospace" font-size="10.00">&#45;&#45;&#45;&#45;&#45;&#45;&#45;&#45;&#45;&#45;&#45;&#45;&#45;&#45;&#45;&#45;&#45;&#45;&#45;&#45;&#45;&#45;&#45;&#45;&#45;&#45;&#45;&#45;&#45;</text>
<text text-anchor="middle" x="1139.5" y="-635" font-family="monospace" font-size="10.00">self_sym_sizes: (1, 16, 4, 4)</text>
</g>
<!-- 132200300094576&#45;&gt;132200300088048 -->
<g id="edge16" class="edge">
<title>132200300094576&#45;&gt;132200300088048</title>
<path fill="none" stroke="black" d="M1070.39,-627.99C1010.47,-611.07 922.54,-586.24 852.1,-566.35"/>
<polygon fill="black" stroke="black" points="852.85,-562.93 842.28,-563.58 850.95,-569.67 852.85,-562.93"/>
</g>
<!-- 132200300088336 -->
<g id="node19" class="node">
<title>132200300088336</title>
<polygon fill="lightgrey" stroke="black" points="1071,-812 880,-812 880,-705 1071,-705 1071,-812"/>
<text text-anchor="middle" x="975.5" y="-800" font-family="monospace" font-size="10.00">MaxPool2DWithIndicesBackward0</text>
<text text-anchor="middle" x="975.5" y="-789" font-family="monospace" font-size="10.00">&#45;&#45;&#45;&#45;&#45;&#45;&#45;&#45;&#45;&#45;&#45;&#45;&#45;&#45;&#45;&#45;&#45;&#45;&#45;&#45;&#45;&#45;&#45;&#45;&#45;&#45;&#45;&#45;&#45;</text>
<text text-anchor="middle" x="975.5" y="-778" font-family="monospace" font-size="10.00">ceil_mode &#160;: &#160;&#160;&#160;&#160;&#160;&#160;&#160;&#160;&#160;False</text>
<text text-anchor="middle" x="975.5" y="-767" font-family="monospace" font-size="10.00">dilation &#160;&#160;: &#160;&#160;&#160;&#160;&#160;&#160;&#160;&#160;(1, 1)</text>
<text text-anchor="middle" x="975.5" y="-756" font-family="monospace" font-size="10.00">kernel_size: &#160;&#160;&#160;&#160;&#160;&#160;&#160;&#160;(2, 2)</text>
<text text-anchor="middle" x="975.5" y="-745" font-family="monospace" font-size="10.00">padding &#160;&#160;&#160;: &#160;&#160;&#160;&#160;&#160;&#160;&#160;&#160;(0, 0)</text>
<text text-anchor="middle" x="975.5" y="-734" font-family="monospace" font-size="10.00">result1 &#160;&#160;&#160;: [saved tensor]</text>
<text text-anchor="middle" x="975.5" y="-723" font-family="monospace" font-size="10.00">self &#160;&#160;&#160;&#160;&#160;&#160;: [saved tensor]</text>
<text text-anchor="middle" x="975.5" y="-712" font-family="monospace" font-size="10.00">stride &#160;&#160;&#160;&#160;: &#160;&#160;&#160;&#160;&#160;&#160;&#160;&#160;(2, 2)</text>
</g>
<!-- 132200300088336&#45;&gt;132200300094576 -->
<g id="edge17" class="edge">
<title>132200300088336&#45;&gt;132200300094576</title>
<path fill="none" stroke="black" d="M1055.58,-704.77C1071.45,-694.31 1087.42,-683.79 1101.11,-674.78"/>
<polygon fill="black" stroke="black" points="1103.32,-677.52 1109.75,-669.09 1099.47,-671.67 1103.32,-677.52"/>
</g>
<!-- 132199803573296 -->
<g id="node20" class="node">
<title>132199803573296</title>
<polygon fill="orange" stroke="black" points="1026,-663.5 925,-663.5 925,-633.5 1026,-633.5 1026,-663.5"/>
<text text-anchor="middle" x="975.5" y="-651.5" font-family="monospace" font-size="10.00">result1</text>
<text text-anchor="middle" x="975.5" y="-640.5" font-family="monospace" font-size="10.00"> (1, 16, 4, 4)</text>
</g>
<!-- 132200300088336&#45;&gt;132199803573296 -->
<g id="edge18" class="edge">
<title>132200300088336&#45;&gt;132199803573296</title>
<path fill="none" stroke="black" d="M975.5,-704.77C975.5,-689.56 975.5,-674.22 975.5,-663.57"/>
</g>
<!-- 132199803637776 -->
<g id="node21" class="node">
<title>132199803637776</title>
<polygon fill="orange" stroke="black" points="907,-663.5 806,-663.5 806,-633.5 907,-633.5 907,-663.5"/>
<text text-anchor="middle" x="856.5" y="-651.5" font-family="monospace" font-size="10.00">self</text>
<text text-anchor="middle" x="856.5" y="-640.5" font-family="monospace" font-size="10.00"> (1, 16, 8, 8)</text>
</g>
<!-- 132200300088336&#45;&gt;132199803637776 -->
<g id="edge19" class="edge">
<title>132200300088336&#45;&gt;132199803637776</title>
<path fill="none" stroke="black" d="M917.39,-704.77C900.64,-689.56 883.74,-674.22 872,-663.57"/>
</g>
<!-- 132200300094528 -->
<g id="node22" class="node">
<title>132200300094528</title>
<polygon fill="lightgrey" stroke="black" points="857,-889 708,-889 708,-848 857,-848 857,-889"/>
<text text-anchor="middle" x="782.5" y="-877" font-family="monospace" font-size="10.00">ReluBackward0</text>
<text text-anchor="middle" x="782.5" y="-866" font-family="monospace" font-size="10.00">&#45;&#45;&#45;&#45;&#45;&#45;&#45;&#45;&#45;&#45;&#45;&#45;&#45;&#45;&#45;&#45;&#45;&#45;&#45;&#45;&#45;&#45;</text>
<text text-anchor="middle" x="782.5" y="-855" font-family="monospace" font-size="10.00">result: [saved tensor]</text>
</g>
<!-- 132200300094528&#45;&gt;132200300088336 -->
<g id="edge20" class="edge">
<title>132200300094528&#45;&gt;132200300088336</title>
<path fill="none" stroke="black" d="M817.45,-847.94C833.25,-839.1 852.83,-828.14 872.77,-816.98"/>
<polygon fill="black" stroke="black" points="874.62,-819.96 881.64,-812.03 871.2,-813.85 874.62,-819.96"/>
</g>
<!-- 132199803573200 -->
<g id="node23" class="node">
<title>132199803573200</title>
<polygon fill="orange" stroke="black" points="779,-773.5 678,-773.5 678,-743.5 779,-743.5 779,-773.5"/>
<text text-anchor="middle" x="728.5" y="-761.5" font-family="monospace" font-size="10.00">result</text>
<text text-anchor="middle" x="728.5" y="-750.5" font-family="monospace" font-size="10.00"> (1, 16, 8, 8)</text>
</g>
<!-- 132200300094528&#45;&gt;132199803573200 -->
<g id="edge21" class="edge">
<title>132200300094528&#45;&gt;132199803573200</title>
<path fill="none" stroke="black" d="M772.72,-847.94C762.02,-826.55 745.13,-792.77 735.62,-773.74"/>
</g>
<!-- 132200300091360 -->
<g id="node24" class="node">
<title>132200300091360</title>
<polygon fill="lightgrey" stroke="black" points="711,-1054 490,-1054 490,-925 711,-925 711,-1054"/>
<text text-anchor="middle" x="600.5" y="-1042" font-family="monospace" font-size="10.00">ConvolutionBackward0</text>
<text text-anchor="middle" x="600.5" y="-1031" font-family="monospace" font-size="10.00">&#45;&#45;&#45;&#45;&#45;&#45;&#45;&#45;&#45;&#45;&#45;&#45;&#45;&#45;&#45;&#45;&#45;&#45;&#45;&#45;&#45;&#45;&#45;&#45;&#45;&#45;&#45;&#45;&#45;&#45;&#45;&#45;&#45;&#45;</text>
<text text-anchor="middle" x="600.5" y="-1020" font-family="monospace" font-size="10.00">bias_sym_sizes_opt: &#160;&#160;&#160;&#160;&#160;&#160;&#160;&#160;&#160;(16,)</text>
<text text-anchor="middle" x="600.5" y="-1009" font-family="monospace" font-size="10.00">dilation &#160;&#160;&#160;&#160;&#160;&#160;&#160;&#160;&#160;: &#160;&#160;&#160;&#160;&#160;&#160;&#160;&#160;(1, 1)</text>
<text text-anchor="middle" x="600.5" y="-998" font-family="monospace" font-size="10.00">groups &#160;&#160;&#160;&#160;&#160;&#160;&#160;&#160;&#160;&#160;&#160;: &#160;&#160;&#160;&#160;&#160;&#160;&#160;&#160;&#160;&#160;&#160;&#160;&#160;1</text>
<text text-anchor="middle" x="600.5" y="-987" font-family="monospace" font-size="10.00">input &#160;&#160;&#160;&#160;&#160;&#160;&#160;&#160;&#160;&#160;&#160;&#160;: [saved tensor]</text>
<text text-anchor="middle" x="600.5" y="-976" font-family="monospace" font-size="10.00">output_padding &#160;&#160;&#160;: &#160;&#160;&#160;&#160;&#160;&#160;&#160;&#160;(0, 0)</text>
<text text-anchor="middle" x="600.5" y="-965" font-family="monospace" font-size="10.00">padding &#160;&#160;&#160;&#160;&#160;&#160;&#160;&#160;&#160;&#160;: &#160;&#160;&#160;&#160;&#160;&#160;&#160;&#160;(0, 0)</text>
<text text-anchor="middle" x="600.5" y="-954" font-family="monospace" font-size="10.00">stride &#160;&#160;&#160;&#160;&#160;&#160;&#160;&#160;&#160;&#160;&#160;: &#160;&#160;&#160;&#160;&#160;&#160;&#160;&#160;(1, 1)</text>
<text text-anchor="middle" x="600.5" y="-943" font-family="monospace" font-size="10.00">transposed &#160;&#160;&#160;&#160;&#160;&#160;&#160;: &#160;&#160;&#160;&#160;&#160;&#160;&#160;&#160;&#160;False</text>
<text text-anchor="middle" x="600.5" y="-932" font-family="monospace" font-size="10.00">weight &#160;&#160;&#160;&#160;&#160;&#160;&#160;&#160;&#160;&#160;&#160;: [saved tensor]</text>
</g>
<!-- 132200300091360&#45;&gt;132200300094528 -->
<g id="edge22" class="edge">
<title>132200300091360&#45;&gt;132200300094528</title>
<path fill="none" stroke="black" d="M697.63,-924.99C714.03,-914.27 730.16,-903.72 743.88,-894.75"/>
<polygon fill="black" stroke="black" points="746.07,-897.5 752.53,-889.1 742.24,-891.64 746.07,-897.5"/>
</g>
<!-- 132199803649296 -->
<g id="node25" class="node">
<title>132199803649296</title>
<polygon fill="orange" stroke="black" points="431,-883.5 324,-883.5 324,-853.5 431,-853.5 431,-883.5"/>
<text text-anchor="middle" x="377.5" y="-871.5" font-family="monospace" font-size="10.00">input</text>
<text text-anchor="middle" x="377.5" y="-860.5" font-family="monospace" font-size="10.00"> (1, 8, 12, 12)</text>
</g>
<!-- 132200300091360&#45;&gt;132199803649296 -->
<g id="edge23" class="edge">
<title>132200300091360&#45;&gt;132199803649296</title>
<path fill="none" stroke="black" d="M489.98,-929.52C457.78,-912.34 425.47,-895.1 403.8,-883.53"/>
</g>
<!-- 132199803638544 -->
<g id="node26" class="node">
<title>132199803638544</title>
<polygon fill="lightblue" stroke="black" points="690,-883.5 589,-883.5 589,-853.5 690,-853.5 690,-883.5"/>
<text text-anchor="middle" x="639.5" y="-871.5" font-family="monospace" font-size="10.00">conv2.weight</text>
<text text-anchor="middle" x="639.5" y="-860.5" font-family="monospace" font-size="10.00"> (16, 8, 5, 5)</text>
</g>
<!-- 132200300091360&#45;&gt;132199803638544 -->
<g id="edge24" class="edge">
<title>132200300091360&#45;&gt;132199803638544</title>
<path fill="none" stroke="black" d="M621.37,-924.82C626.44,-909.35 631.39,-894.25 634.83,-883.75"/>
</g>
<!-- 132200300098992 -->
<g id="node38" class="node">
<title>132200300098992</title>
<polygon fill="lightgrey" stroke="black" points="660,-768 559,-768 559,-749 660,-749 660,-768"/>
<text text-anchor="middle" x="609.5" y="-756" font-family="monospace" font-size="10.00">AccumulateGrad</text>
</g>
<!-- 132199803638544&#45;&gt;132200300098992 -->
<g id="edge38" class="edge">
<title>132199803638544&#45;&gt;132200300098992</title>
<path fill="none" stroke="black" d="M635.58,-853.38C630.2,-834 620.51,-799.14 614.58,-777.79"/>
<polygon fill="black" stroke="black" points="617.91,-776.7 611.86,-768.01 611.17,-778.58 617.91,-776.7"/>
</g>
<!-- 132200300098656 -->
<g id="node27" class="node">
<title>132200300098656</title>
<polygon fill="lightgrey" stroke="black" points="434,-1197 243,-1197 243,-1090 434,-1090 434,-1197"/>
<text text-anchor="middle" x="338.5" y="-1185" font-family="monospace" font-size="10.00">MaxPool2DWithIndicesBackward0</text>
<text text-anchor="middle" x="338.5" y="-1174" font-family="monospace" font-size="10.00">&#45;&#45;&#45;&#45;&#45;&#45;&#45;&#45;&#45;&#45;&#45;&#45;&#45;&#45;&#45;&#45;&#45;&#45;&#45;&#45;&#45;&#45;&#45;&#45;&#45;&#45;&#45;&#45;&#45;</text>
<text text-anchor="middle" x="338.5" y="-1163" font-family="monospace" font-size="10.00">ceil_mode &#160;: &#160;&#160;&#160;&#160;&#160;&#160;&#160;&#160;&#160;False</text>
<text text-anchor="middle" x="338.5" y="-1152" font-family="monospace" font-size="10.00">dilation &#160;&#160;: &#160;&#160;&#160;&#160;&#160;&#160;&#160;&#160;(1, 1)</text>
<text text-anchor="middle" x="338.5" y="-1141" font-family="monospace" font-size="10.00">kernel_size: &#160;&#160;&#160;&#160;&#160;&#160;&#160;&#160;(2, 2)</text>
<text text-anchor="middle" x="338.5" y="-1130" font-family="monospace" font-size="10.00">padding &#160;&#160;&#160;: &#160;&#160;&#160;&#160;&#160;&#160;&#160;&#160;(0, 0)</text>
<text text-anchor="middle" x="338.5" y="-1119" font-family="monospace" font-size="10.00">result1 &#160;&#160;&#160;: [saved tensor]</text>
<text text-anchor="middle" x="338.5" y="-1108" font-family="monospace" font-size="10.00">self &#160;&#160;&#160;&#160;&#160;&#160;: [saved tensor]</text>
<text text-anchor="middle" x="338.5" y="-1097" font-family="monospace" font-size="10.00">stride &#160;&#160;&#160;&#160;: &#160;&#160;&#160;&#160;&#160;&#160;&#160;&#160;(2, 2)</text>
</g>
<!-- 132200300098656&#45;&gt;132200300091360 -->
<g id="edge25" class="edge">
<title>132200300098656&#45;&gt;132200300091360</title>
<path fill="none" stroke="black" d="M429.03,-1089.98C446.19,-1080.02 464.38,-1069.47 482.25,-1059.1"/>
<polygon fill="black" stroke="black" points="484.09,-1062.08 490.99,-1054.03 480.58,-1056.02 484.09,-1062.08"/>
</g>
<!-- 132199803569072 -->
<g id="node28" class="node">
<title>132199803569072</title>
<polygon fill="orange" stroke="black" points="419,-1004.5 312,-1004.5 312,-974.5 419,-974.5 419,-1004.5"/>
<text text-anchor="middle" x="365.5" y="-992.5" font-family="monospace" font-size="10.00">result1</text>
<text text-anchor="middle" x="365.5" y="-981.5" font-family="monospace" font-size="10.00"> (1, 8, 12, 12)</text>
</g>
<!-- 132200300098656&#45;&gt;132199803569072 -->
<g id="edge26" class="edge">
<title>132200300098656&#45;&gt;132199803569072</title>
<path fill="none" stroke="black" d="M347.87,-1089.76C353.23,-1059.58 359.55,-1023.98 362.98,-1004.68"/>
</g>
<!-- 132199803644976 -->
<g id="node29" class="node">
<title>132199803644976</title>
<polygon fill="orange" stroke="black" points="294,-1004.5 187,-1004.5 187,-974.5 294,-974.5 294,-1004.5"/>
<text text-anchor="middle" x="240.5" y="-992.5" font-family="monospace" font-size="10.00">self</text>
<text text-anchor="middle" x="240.5" y="-981.5" font-family="monospace" font-size="10.00"> (1, 8, 24, 24)</text>
</g>
<!-- 132200300098656&#45;&gt;132199803644976 -->
<g id="edge27" class="edge">
<title>132200300098656&#45;&gt;132199803644976</title>
<path fill="none" stroke="black" d="M304.5,-1089.76C285.04,-1059.58 262.09,-1023.98 249.64,-1004.68"/>
</g>
<!-- 132200300094096 -->
<g id="node30" class="node">
<title>132200300094096</title>
<polygon fill="lightgrey" stroke="black" points="426,-1274 277,-1274 277,-1233 426,-1233 426,-1274"/>
<text text-anchor="middle" x="351.5" y="-1262" font-family="monospace" font-size="10.00">ReluBackward0</text>
<text text-anchor="middle" x="351.5" y="-1251" font-family="monospace" font-size="10.00">&#45;&#45;&#45;&#45;&#45;&#45;&#45;&#45;&#45;&#45;&#45;&#45;&#45;&#45;&#45;&#45;&#45;&#45;&#45;&#45;&#45;&#45;</text>
<text text-anchor="middle" x="351.5" y="-1240" font-family="monospace" font-size="10.00">result: [saved tensor]</text>
</g>
<!-- 132200300094096&#45;&gt;132200300098656 -->
<g id="edge28" class="edge">
<title>132200300094096&#45;&gt;132200300098656</title>
<path fill="none" stroke="black" d="M349.15,-1232.94C348.25,-1225.53 347.18,-1216.64 346.07,-1207.38"/>
<polygon fill="black" stroke="black" points="349.52,-1206.77 344.85,-1197.26 342.57,-1207.6 349.52,-1206.77"/>
</g>
<!-- 132199803571184 -->
<g id="node31" class="node">
<title>132199803571184</title>
<polygon fill="orange" stroke="black" points="559,-1158.5 452,-1158.5 452,-1128.5 559,-1128.5 559,-1158.5"/>
<text text-anchor="middle" x="505.5" y="-1146.5" font-family="monospace" font-size="10.00">result</text>
<text text-anchor="middle" x="505.5" y="-1135.5" font-family="monospace" font-size="10.00"> (1, 8, 24, 24)</text>
</g>
<!-- 132200300094096&#45;&gt;132199803571184 -->
<g id="edge29" class="edge">
<title>132200300094096&#45;&gt;132199803571184</title>
<path fill="none" stroke="black" d="M386.41,-1232.84C403.67,-1222.71 424.59,-1209.82 442.5,-1197 459.4,-1184.9 477.52,-1169.53 489.96,-1158.55"/>
</g>
<!-- 132200300091408 -->
<g id="node32" class="node">
<title>132200300091408</title>
<polygon fill="lightgrey" stroke="black" points="284,-1439 63,-1439 63,-1310 284,-1310 284,-1439"/>
<text text-anchor="middle" x="173.5" y="-1427" font-family="monospace" font-size="10.00">ConvolutionBackward0</text>
<text text-anchor="middle" x="173.5" y="-1416" font-family="monospace" font-size="10.00">&#45;&#45;&#45;&#45;&#45;&#45;&#45;&#45;&#45;&#45;&#45;&#45;&#45;&#45;&#45;&#45;&#45;&#45;&#45;&#45;&#45;&#45;&#45;&#45;&#45;&#45;&#45;&#45;&#45;&#45;&#45;&#45;&#45;&#45;</text>
<text text-anchor="middle" x="173.5" y="-1405" font-family="monospace" font-size="10.00">bias_sym_sizes_opt: &#160;&#160;&#160;&#160;&#160;&#160;&#160;&#160;&#160;&#160;(8,)</text>
<text text-anchor="middle" x="173.5" y="-1394" font-family="monospace" font-size="10.00">dilation &#160;&#160;&#160;&#160;&#160;&#160;&#160;&#160;&#160;: &#160;&#160;&#160;&#160;&#160;&#160;&#160;&#160;(1, 1)</text>
<text text-anchor="middle" x="173.5" y="-1383" font-family="monospace" font-size="10.00">groups &#160;&#160;&#160;&#160;&#160;&#160;&#160;&#160;&#160;&#160;&#160;: &#160;&#160;&#160;&#160;&#160;&#160;&#160;&#160;&#160;&#160;&#160;&#160;&#160;1</text>
<text text-anchor="middle" x="173.5" y="-1372" font-family="monospace" font-size="10.00">input &#160;&#160;&#160;&#160;&#160;&#160;&#160;&#160;&#160;&#160;&#160;&#160;: [saved tensor]</text>
<text text-anchor="middle" x="173.5" y="-1361" font-family="monospace" font-size="10.00">output_padding &#160;&#160;&#160;: &#160;&#160;&#160;&#160;&#160;&#160;&#160;&#160;(0, 0)</text>
<text text-anchor="middle" x="173.5" y="-1350" font-family="monospace" font-size="10.00">padding &#160;&#160;&#160;&#160;&#160;&#160;&#160;&#160;&#160;&#160;: &#160;&#160;&#160;&#160;&#160;&#160;&#160;&#160;(0, 0)</text>
<text text-anchor="middle" x="173.5" y="-1339" font-family="monospace" font-size="10.00">stride &#160;&#160;&#160;&#160;&#160;&#160;&#160;&#160;&#160;&#160;&#160;: &#160;&#160;&#160;&#160;&#160;&#160;&#160;&#160;(1, 1)</text>
<text text-anchor="middle" x="173.5" y="-1328" font-family="monospace" font-size="10.00">transposed &#160;&#160;&#160;&#160;&#160;&#160;&#160;: &#160;&#160;&#160;&#160;&#160;&#160;&#160;&#160;&#160;False</text>
<text text-anchor="middle" x="173.5" y="-1317" font-family="monospace" font-size="10.00">weight &#160;&#160;&#160;&#160;&#160;&#160;&#160;&#160;&#160;&#160;&#160;: [saved tensor]</text>
</g>
<!-- 132200300091408&#45;&gt;132200300094096 -->
<g id="edge30" class="edge">
<title>132200300091408&#45;&gt;132200300094096</title>
<path fill="none" stroke="black" d="M268.49,-1309.99C284.53,-1299.27 300.31,-1288.72 313.73,-1279.75"/>
<polygon fill="black" stroke="black" points="315.82,-1282.56 322.19,-1274.1 311.93,-1276.75 315.82,-1282.56"/>
</g>
<!-- 132199803643440 -->
<g id="node33" class="node">
<title>132199803643440</title>
<polygon fill="orange" stroke="black" points="107,-1268.5 0,-1268.5 0,-1238.5 107,-1238.5 107,-1268.5"/>
<text text-anchor="middle" x="53.5" y="-1256.5" font-family="monospace" font-size="10.00">input</text>
<text text-anchor="middle" x="53.5" y="-1245.5" font-family="monospace" font-size="10.00"> (1, 1, 28, 28)</text>
</g>
<!-- 132200300091408&#45;&gt;132199803643440 -->
<g id="edge31" class="edge">
<title>132200300091408&#45;&gt;132199803643440</title>
<path fill="none" stroke="black" d="M109.28,-1309.82C93.68,-1294.35 78.46,-1279.25 67.87,-1268.75"/>
</g>
<!-- 132199803643632 -->
<g id="node34" class="node">
<title>132199803643632</title>
<polygon fill="lightblue" stroke="black" points="259,-1268.5 164,-1268.5 164,-1238.5 259,-1238.5 259,-1268.5"/>
<text text-anchor="middle" x="211.5" y="-1256.5" font-family="monospace" font-size="10.00">conv1.weight</text>
<text text-anchor="middle" x="211.5" y="-1245.5" font-family="monospace" font-size="10.00"> (8, 1, 5, 5)</text>
</g>
<!-- 132200300091408&#45;&gt;132199803643632 -->
<g id="edge32" class="edge">
<title>132200300091408&#45;&gt;132199803643632</title>
<path fill="none" stroke="black" d="M193.83,-1309.82C198.78,-1294.35 203.6,-1279.25 206.95,-1268.75"/>
</g>
<!-- 132200300090832 -->
<g id="node35" class="node">
<title>132200300090832</title>
<polygon fill="lightgrey" stroke="black" points="212,-1153 111,-1153 111,-1134 212,-1134 212,-1153"/>
<text text-anchor="middle" x="161.5" y="-1141" font-family="monospace" font-size="10.00">AccumulateGrad</text>
</g>
<!-- 132199803643632&#45;&gt;132200300090832 -->
<g id="edge34" class="edge">
<title>132199803643632&#45;&gt;132200300090832</title>
<path fill="none" stroke="black" d="M204.96,-1238.38C195.91,-1218.82 179.56,-1183.5 169.7,-1162.2"/>
<polygon fill="black" stroke="black" points="172.82,-1160.61 165.44,-1153.01 166.46,-1163.55 172.82,-1160.61"/>
</g>
<!-- 132200300090832&#45;&gt;132200300091408 -->
<g id="edge33" class="edge">
<title>132200300090832&#45;&gt;132200300091408</title>
<path fill="none" stroke="black" d="M160.6,-1153.03C158.99,-1168.8 155.66,-1203.58 154.5,-1233 153.78,-1251.21 152.78,-1255.86 154.5,-1274 155.29,-1282.37 156.45,-1291.08 157.81,-1299.72"/>
<polygon fill="black" stroke="black" points="154.39,-1300.51 159.49,-1309.79 161.3,-1299.35 154.39,-1300.51"/>
</g>
<!-- 132200300099184 -->
<g id="node36" class="node">
<title>132200300099184</title>
<polygon fill="lightgrey" stroke="black" points="224,-1494 123,-1494 123,-1475 224,-1475 224,-1494"/>
<text text-anchor="middle" x="173.5" y="-1482" font-family="monospace" font-size="10.00">AccumulateGrad</text>
</g>
<!-- 132200300099184&#45;&gt;132200300091408 -->
<g id="edge35" class="edge">
<title>132200300099184&#45;&gt;132200300091408</title>
<path fill="none" stroke="black" d="M173.5,-1474.66C173.5,-1468.47 173.5,-1459.52 173.5,-1449.51"/>
<polygon fill="black" stroke="black" points="177,-1449.21 173.5,-1439.21 170,-1449.21 177,-1449.21"/>
</g>
<!-- 132199803638928 -->
<g id="node37" class="node">
<title>132199803638928</title>
<polygon fill="lightblue" stroke="black" points="212,-1560 135,-1560 135,-1530 212,-1530 212,-1560"/>
<text text-anchor="middle" x="173.5" y="-1548" font-family="monospace" font-size="10.00">conv1.bias</text>
<text text-anchor="middle" x="173.5" y="-1537" font-family="monospace" font-size="10.00"> (8)</text>
</g>
<!-- 132199803638928&#45;&gt;132200300099184 -->
<g id="edge36" class="edge">
<title>132199803638928&#45;&gt;132200300099184</title>
<path fill="none" stroke="black" d="M173.5,-1529.84C173.5,-1522.21 173.5,-1512.7 173.5,-1504.45"/>
<polygon fill="black" stroke="black" points="177,-1504.27 173.5,-1494.27 170,-1504.27 177,-1504.27"/>
</g>
<!-- 132200300098992&#45;&gt;132200300091360 -->
<g id="edge37" class="edge">
<title>132200300098992&#45;&gt;132200300091360</title>
<path fill="none" stroke="black" d="M605.68,-768.06C598.97,-783.61 585.34,-817.66 580.5,-848 577.05,-869.63 578.4,-893.19 581.65,-914.72"/>
<polygon fill="black" stroke="black" points="578.23,-915.49 583.32,-924.78 585.13,-914.35 578.23,-915.49"/>
</g>
<!-- 132200300088240 -->
<g id="node39" class="node">
<title>132200300088240</title>
<polygon fill="lightgrey" stroke="black" points="678,-1153 577,-1153 577,-1134 678,-1134 678,-1153"/>
<text text-anchor="middle" x="627.5" y="-1141" font-family="monospace" font-size="10.00">AccumulateGrad</text>
</g>
<!-- 132200300088240&#45;&gt;132200300091360 -->
<g id="edge39" class="edge">
<title>132200300088240&#45;&gt;132200300091360</title>
<path fill="none" stroke="black" d="M625.97,-1133.89C623.54,-1120.19 618.55,-1092.12 613.63,-1064.42"/>
<polygon fill="black" stroke="black" points="617.02,-1063.5 611.83,-1054.26 610.13,-1064.72 617.02,-1063.5"/>
</g>
<!-- 132199803643248 -->
<g id="node40" class="node">
<title>132199803643248</title>
<polygon fill="lightblue" stroke="black" points="666,-1268.5 589,-1268.5 589,-1238.5 666,-1238.5 666,-1268.5"/>
<text text-anchor="middle" x="627.5" y="-1256.5" font-family="monospace" font-size="10.00">conv2.bias</text>
<text text-anchor="middle" x="627.5" y="-1245.5" font-family="monospace" font-size="10.00"> (16)</text>
</g>
<!-- 132199803643248&#45;&gt;132200300088240 -->
<g id="edge40" class="edge">
<title>132199803643248&#45;&gt;132200300088240</title>
<path fill="none" stroke="black" d="M627.5,-1238.38C627.5,-1219.09 627.5,-1184.46 627.5,-1163.08"/>
<polygon fill="black" stroke="black" points="631,-1163.01 627.5,-1153.01 624,-1163.01 631,-1163.01"/>
</g>
<!-- 132200300086752 -->
<g id="node41" class="node">
<title>132200300086752</title>
<polygon fill="lightgrey" stroke="black" points="599,-658 522,-658 522,-639 599,-639 599,-658"/>
<text text-anchor="middle" x="560.5" y="-646" font-family="monospace" font-size="10.00">TBackward0</text>
</g>
<!-- 132200300086752&#45;&gt;132200300088048 -->
<g id="edge41" class="edge">
<title>132200300086752&#45;&gt;132200300088048</title>
<path fill="none" stroke="black" d="M573.8,-638.97C588.18,-629.75 612.47,-614.17 638.01,-597.8"/>
<polygon fill="black" stroke="black" points="640.18,-600.57 646.71,-592.22 636.4,-594.67 640.18,-600.57"/>
</g>
<!-- 132200300095968 -->
<g id="node42" class="node">
<title>132200300095968</title>
<polygon fill="lightgrey" stroke="black" points="541,-768 440,-768 440,-749 541,-749 541,-768"/>
<text text-anchor="middle" x="490.5" y="-756" font-family="monospace" font-size="10.00">AccumulateGrad</text>
</g>
<!-- 132200300095968&#45;&gt;132200300086752 -->
<g id="edge42" class="edge">
<title>132200300095968&#45;&gt;132200300086752</title>
<path fill="none" stroke="black" d="M496.23,-748.66C507.82,-730.77 534.25,-690 549.36,-666.69"/>
<polygon fill="black" stroke="black" points="552.39,-668.45 554.89,-658.16 546.51,-664.65 552.39,-668.45"/>
</g>
<!-- 132199803642960 -->
<g id="node43" class="node">
<title>132199803642960</title>
<polygon fill="lightblue" stroke="black" points="532,-883.5 449,-883.5 449,-853.5 532,-853.5 532,-883.5"/>
<text text-anchor="middle" x="490.5" y="-871.5" font-family="monospace" font-size="10.00">fc1.weight</text>
<text text-anchor="middle" x="490.5" y="-860.5" font-family="monospace" font-size="10.00"> (128, 256)</text>
</g>
<!-- 132199803642960&#45;&gt;132200300095968 -->
<g id="edge43" class="edge">
<title>132199803642960&#45;&gt;132200300095968</title>
<path fill="none" stroke="black" d="M490.5,-853.38C490.5,-834.09 490.5,-799.46 490.5,-778.08"/>
<polygon fill="black" stroke="black" points="494,-778.01 490.5,-768.01 487,-778.01 494,-778.01"/>
</g>
<!-- 132200300091744 -->
<g id="node44" class="node">
<title>132200300091744</title>
<polygon fill="lightgrey" stroke="black" points="535,-344.5 458,-344.5 458,-325.5 535,-325.5 535,-344.5"/>
<text text-anchor="middle" x="496.5" y="-332.5" font-family="monospace" font-size="10.00">TBackward0</text>
</g>
<!-- 132200300091744&#45;&gt;132200300095200 -->
<g id="edge44" class="edge">
<title>132200300091744&#45;&gt;132200300095200</title>
<path fill="none" stroke="black" d="M507.07,-325.44C519.44,-315.43 541.1,-297.9 563.56,-279.71"/>
<polygon fill="black" stroke="black" points="565.96,-282.28 571.53,-273.26 561.55,-276.84 565.96,-282.28"/>
</g>
<!-- 132200300094672 -->
<g id="node45" class="node">
<title>132200300094672</title>
<polygon fill="lightgrey" stroke="black" points="500,-427 399,-427 399,-408 500,-408 500,-427"/>
<text text-anchor="middle" x="449.5" y="-415" font-family="monospace" font-size="10.00">AccumulateGrad</text>
</g>
<!-- 132200300094672&#45;&gt;132200300091744 -->
<g id="edge45" class="edge">
<title>132200300094672&#45;&gt;132200300091744</title>
<path fill="none" stroke="black" d="M454.53,-407.89C462.05,-395 476.4,-370.43 486.2,-353.64"/>
<polygon fill="black" stroke="black" points="489.34,-355.2 491.36,-344.8 483.3,-351.67 489.34,-355.2"/>
</g>
<!-- 132199803642576 -->
<g id="node46" class="node">
<title>132199803642576</title>
<polygon fill="lightblue" stroke="black" points="488,-548 411,-548 411,-518 488,-518 488,-548"/>
<text text-anchor="middle" x="449.5" y="-536" font-family="monospace" font-size="10.00">fc2.weight</text>
<text text-anchor="middle" x="449.5" y="-525" font-family="monospace" font-size="10.00"> (10, 128)</text>
</g>
<!-- 132199803642576&#45;&gt;132200300094672 -->
<g id="edge46" class="edge">
<title>132199803642576&#45;&gt;132200300094672</title>
<path fill="none" stroke="black" d="M449.5,-517.63C449.5,-497.21 449.5,-459.81 449.5,-437.24"/>
<polygon fill="black" stroke="black" points="453,-437.23 449.5,-427.23 446,-437.23 453,-437.23"/>
</g>
</g>
</svg>
